<svg width="223" height="259" viewBox="0 0 223 259" fill="none" xmlns="http://www.w3.org/2000/svg">
<path d="M222.721 70.4534C221.928 50.8988 213.568 32.7895 199.171 19.498C192.369 13.2348 184.632 8.36032 176.159 5.01619C167.685 1.70041 158.73 0 149.519 0C148.527 0 147.507 0.0283401 146.515 0.0566802C126.961 0.850202 108.88 9.21053 95.5598 23.6356L13.1185 112.595C10.4829 115.458 10.6246 119.907 13.4586 122.571L19.1833 127.955C22.0456 130.648 26.5517 130.506 29.244 127.615L111.742 38.5992C121.151 28.3968 134.952 22.5304 149.576 22.5304C162.726 22.5304 175.054 27.2065 184.236 35.7085C194.297 45.004 200.163 57.6437 200.702 71.3603C201.24 85.0486 196.479 98.085 187.24 108.089L75.1836 227.713C69.5722 233.777 61.3819 237.263 52.6815 237.263C44.8597 237.263 37.5196 234.486 32.05 229.413C26.0702 223.887 22.6127 216.377 22.2443 208.215C21.9042 200.081 24.7382 192.316 30.2078 186.393C30.2078 186.393 134.499 75.1012 134.67 74.9595C143.795 65.4939 158.107 79.2672 148.981 88.7328C133.479 104.802 93.6616 147.794 74.1636 168.907C71.5277 171.77 71.6694 176.219 74.5034 178.883L80.2281 184.267C83.0907 186.96 87.5965 186.818 90.2888 183.927L165.362 102.988C177.236 90.1215 176.443 69.9717 163.548 58.0688C157.682 52.6559 150.001 49.6518 141.981 49.6518C137.645 49.6518 133.45 50.502 129.483 52.2024C125.402 53.9312 121.775 56.4818 118.77 59.7692L14.1104 171.372C-5.52927 192.656 -4.16895 225.955 17.1144 245.623C26.4667 254.267 39.078 259 52.6246 259C67.6731 259 81.7582 253.077 91.2804 242.761L203.337 123.137C216.6 108.741 223.487 90.0364 222.721 70.4534Z" fill="#9B8DB9"/>
</svg>
