<svg width="11" height="11" viewBox="0 0 11 11" fill="none" xmlns="http://www.w3.org/2000/svg">
<path d="M5.49932 0.114502C2.46262 0.114502 0 2.58675 0 5.6365C0 8.07574 1.57575 10.1452 3.762 10.8759C4.037 10.9268 4.13737 10.7563 4.13737 10.6099C4.13737 10.4785 4.13256 10.1314 4.12981 9.67074C2.60013 10.0042 2.277 8.93028 2.277 8.93028C2.02743 8.29228 1.6665 8.12249 1.6665 8.12249C1.16668 7.78012 1.70363 7.78699 1.70363 7.78699C2.25568 7.82619 2.54582 8.35624 2.54582 8.35624C3.03669 9.19978 3.8335 8.95644 4.147 8.81478C4.1965 8.45798 4.33881 8.21465 4.49625 8.07644C3.27525 7.9369 1.991 7.46319 1.991 5.34775C1.991 4.74481 2.2055 4.25188 2.5575 3.8655C2.50043 3.72593 2.31207 3.16425 2.61112 2.40456C2.61112 2.40456 3.07312 2.25606 4.12362 2.97038C4.56225 2.848 5.0325 2.78681 5.50069 2.78475C5.9675 2.7875 6.43844 2.848 6.87775 2.97106C7.92754 2.25675 8.38891 2.40525 8.38891 2.40525C8.68859 3.16563 8.50025 3.72663 8.44384 3.86618C8.79654 4.25256 9.009 4.7455 9.009 5.34843C9.009 7.46937 7.72337 7.93619 6.49825 8.07299C6.69556 8.24349 6.87156 8.5804 6.87156 9.09528C6.87156 9.83369 6.86468 10.429 6.86468 10.6099C6.86468 10.7577 6.96368 10.9295 7.24281 10.8752C9.42566 10.1437 11 8.07503 11 5.6365C11 2.58675 8.53741 0.114502 5.49932 0.114502Z" fill="#755BC0"/>
</svg>
