<svg width="16" height="16" viewBox="0 0 16 16" fill="none" xmlns="http://www.w3.org/2000/svg">
<path d="M15.1914 7.57058H12.589V3.63472C12.589 1.63051 10.9584 0 8.95424 0C7.65639 0 6.51549 0.683893 5.87231 1.71005H3.84345L0.372681 5.20616V14.56C0.372681 14.7972 0.565641 14.9901 0.802825 14.9901H8.59578V8.00076C8.59578 7.44732 9.04603 6.99707 9.59944 6.99707H10.7135V5.20616L7.24281 1.71005H6.57611C7.1378 1.01734 7.995 0.573516 8.95424 0.573516C10.6422 0.573516 12.0155 1.94673 12.0155 3.63468V7.57055H9.59944C9.36226 7.57055 9.16926 7.76348 9.16926 8.0007V15.5641C9.16926 15.8013 9.36223 15.9942 9.59944 15.9942H15.1914C15.4286 15.9942 15.6215 15.8013 15.6215 15.5641V8.00076C15.6215 7.76351 15.4286 7.57058 15.1914 7.57058ZM6.76764 4.23692C6.76764 4.90895 6.22093 5.45567 5.54889 5.45567C4.87689 5.45567 4.33018 4.90895 4.33018 4.23692C4.33018 3.62574 4.78245 3.11834 5.36981 3.03142C5.33689 3.22773 5.31946 3.42914 5.31946 3.63462C5.07678 3.72737 4.90366 3.96207 4.90366 4.23692C4.90366 4.5927 5.19312 4.88215 5.54889 4.88215C5.90467 4.88215 6.19413 4.59273 6.19413 4.23692C6.19413 4.00557 6.07126 3.80277 5.88774 3.68885C5.88774 3.68885 5.87506 3.27897 5.94356 3.08412C6.42243 3.2485 6.76764 3.70302 6.76764 4.23692ZM13.1196 13.091C12.5045 13.6402 11.5912 13.6741 11.0081 13.091C10.9481 13.0311 10.894 12.9664 10.8454 12.8985C10.4436 12.954 10.032 12.969 9.65271 12.969C9.52584 12.969 9.42301 12.8662 9.42301 12.7393C9.42301 12.6124 9.52587 12.5096 9.65271 12.5096C10.0125 12.5096 10.3363 12.4936 10.6259 12.4614C10.4576 11.937 10.5672 11.3432 11.0081 10.9795C12.0571 10.1141 13.1053 10.9126 14.2837 9.7342C14.4529 9.56499 14.6514 9.6849 14.6424 9.94398C14.6185 10.6354 14.2815 12.0539 13.1196 13.091Z" fill="#333333"/>
</svg>
