<svg width="12" height="12" viewBox="0 0 12 12" fill="none" xmlns="http://www.w3.org/2000/svg">
<path d="M12 6.35991V5.61598C12 5.35563 11.7889 5.14456 11.5286 5.14456H10.1516V4.21678C10.1516 3.95644 9.94057 3.74536 9.6802 3.74536H5.12004C5.03323 3.74536 4.96289 3.81572 4.96289 3.90249V5.82811C4.96289 5.88914 4.99823 5.94467 5.05355 5.97052L5.48768 6.1732C5.65362 6.25067 5.75965 6.41724 5.75965 6.60038V8.19396C5.75965 8.45431 5.54859 8.66538 5.28823 8.66538H3.69464C3.4343 8.66538 3.22322 8.45431 3.22322 8.19396V6.60038C3.22322 6.41726 3.3293 6.25071 3.49523 6.1732L3.92937 5.97052C3.98468 5.94469 4.02005 5.88919 4.02005 5.82811V3.90249C4.02005 3.81572 3.94969 3.74536 3.8629 3.74536H2.31977C2.05943 3.74536 1.84835 3.95642 1.84835 4.21678V8.10122C1.84835 8.9213 2.20357 9.9016 2.84334 10.6339H0.471422C0.211055 10.6339 0 10.845 0 11.1053C0 11.3656 0.211055 11.5767 0.471422 11.5767H11.5286C11.7889 11.5767 12 11.3656 12 11.1053C12 10.845 11.789 10.6339 11.5286 10.6339H9.15663C9.65114 10.0679 9.98562 9.33938 10.104 8.64024C11.1814 8.44046 12 7.49428 12 6.35991ZM10.1516 6.0874H11.0572V6.35991C11.0572 6.95372 10.6794 7.46091 10.1516 7.6538V6.0874Z" fill="#5C5AB3"/>
<path d="M7.96507 2.89301C8.22541 2.89301 8.43649 2.68195 8.43649 2.42159V0.894518C8.43649 0.634174 8.22543 0.423096 7.96507 0.423096C7.7047 0.423096 7.49365 0.63415 7.49365 0.894518V2.42161C7.49367 2.68195 7.70472 2.89301 7.96507 2.89301Z" fill="#5C5AB3"/>
<path d="M4.03491 2.89301C4.29525 2.89301 4.50633 2.68195 4.50633 2.42159V0.894518C4.50633 0.634174 4.29527 0.423096 4.03491 0.423096C3.77456 0.423096 3.56348 0.63415 3.56348 0.894518V2.42161C3.56348 2.68195 3.77456 2.89301 4.03491 2.89301Z" fill="#5C5AB3"/>
<path d="M5.99975 2.89301C6.26009 2.89301 6.47117 2.68195 6.47117 2.42159V0.894518C6.47117 0.634174 6.26009 0.423096 5.99975 0.423096C5.7394 0.423096 5.52832 0.63415 5.52832 0.894518V2.42161C5.52832 2.68195 5.7394 2.89301 5.99975 2.89301Z" fill="#5C5AB3"/>
</svg>
